<svg width="375" height="163" viewBox="0 0 375 163" fill="none" xmlns="http://www.w3.org/2000/svg">
<g clip-path="url(#clip0_802_19866)">
<path opacity="0.4" d="M524.883 12.7039L313.59 322.98C171.799 194.516 289.759 140.157 340.148 105.597C389.216 77.7699 299.773 -23.0791 329.672 -55.9277C356.859 -80.3715 445.766 -37.8892 524.883 12.7039Z" fill="#D0D7E0"/>
<path opacity="0.4" d="M-11.8435 194.072C-9.19863 193.062 -6.63416 191.985 -4.09784 190.925C14.287 183.08 31.4078 172.24 46.3803 158.992C58.9544 147.846 73.2451 134.123 72.3404 115.89C72.0103 109.052 69.4052 102.372 65.0408 97.1291C60.7915 92.0094 55.0844 88.3729 49.921 84.1676C44.7576 79.9622 39.8836 74.839 38.3936 68.3274C35.8892 57.4619 43.1466 47.5357 46.4305 37.7275C50.2783 26.2485 52.593 13.4202 50.6814 1.37174C48.3258 -13.4763 38.1169 -27.8736 23.5019 -31.381C6.791 -35.3846 -20.7151 -26.3058 -28.1352 -9.89837C-33.263 1.39802 -30.781 15.0008 -35.7373 26.3859C-41.7208 40.078 -56.383 46.8321 -69.5335 51.875C-81.2488 56.3434 -93.6086 60.5871 -102.429 69.4938C-106.259 73.3749 -109.354 78.3199 -109.7 83.7472C-110.063 89.6517 -107.067 95.3891 -102.819 99.4981C-98.5709 103.607 -93.1709 106.305 -87.7475 108.599C-79.8068 111.946 -71.5849 114.614 -63.1797 116.507C-50.8561 119.328 -38.3721 128.586 -47.5984 142.256C-51.562 148.126 -57.9839 151.779 -63.7175 155.979C-70.1381 160.642 -75.9459 166.172 -80.9395 172.328C-83.8304 175.902 -86.5599 180.115 -86.3261 184.718C-85.9919 191.437 -79.5958 196.126 -73.3631 198.66C-53.5127 206.679 -31.3285 201.585 -11.8435 194.072Z" fill="#D0D8E0"/>
</g>
<defs>
<clipPath id="clip0_802_19866">
<rect width="375" height="163" fill="white"/>
</clipPath>
</defs>
</svg>
